<?xml version="1.0" encoding="utf-8"?>
<!-- Generator: Adobe Illustrator 20.1.0, SVG Export Plug-In . SVG Version: 6.00 Build 0)  -->
<svg version="1.1" id="Layer_1" xmlns="http://www.w3.org/2000/svg" xmlns:xlink="http://www.w3.org/1999/xlink" x="0px" y="0px"
	 viewBox="183 215 200 84" style="enable-background:new 0 0 612 792;" xml:space="preserve">
<style type="text/css">
	.st0{fill:none;stroke:#9ADBF9;stroke-width:5;stroke-miterlimit:10;}
</style>
<polygon class="st0" points="199.5,295 252.5,279.3 281.3,239.1 312.5,254.1 354.1,222.1 378.5,295 "/>
<line class="st0" x1="269.1" y1="294.1" x2="252.5" y2="279.3"/>
<path class="st0" d="M281.3,239.1"/>
<line class="st0" x1="334.8" y1="295" x2="354.1" y2="222.1"/>
<path class="st0" d="M281.3,239.1"/>
<path class="st0" d="M312.5,254.1"/>
<line class="st0" x1="334.3" y1="295" x2="312.5" y2="254.1"/>
<line class="st0" x1="269.1" y1="294.1" x2="281.3" y2="239.1"/>
<line class="st0" x1="312.5" y1="254.1" x2="269.1" y2="294.1"/>
<path d="M240.4,259.1v5.8c-4-2-7.8-3-11.2-3c-4.4,0-8,1.4-11,4.2c-3,2.8-4.5,6.3-4.5,10.4c0,4.2,1.5,7.7,4.6,10.5
	c3.1,2.8,6.9,4.2,11.5,4.2c3.3,0,6.9-1.1,10.6-3.2v5.9c-3.4,1.8-7.1,2.7-11,2.7c-5.8,0-10.8-2-14.9-5.9c-4.1-3.9-6.2-8.7-6.2-14.2
	c0-5.5,2-10.1,6.1-14c4.1-3.9,8.9-5.8,14.7-5.8C232.7,256.6,236.5,257.4,240.4,259.1z"/>
<path d="M245,276.3c0-5.4,2-10.1,6.1-13.9c4.1-3.9,9-5.8,14.7-5.8c5.6,0,10.4,1.9,14.5,5.8c4,3.9,6.1,8.5,6.1,13.9
	c0,5.7-2,10.5-6,14.4c-4,3.9-8.9,5.9-14.7,5.9c-5.7,0-10.6-2-14.6-5.9S245,281.9,245,276.3z M280.9,276.6c0-4.1-1.5-7.6-4.5-10.5
	c-3-2.8-6.7-4.3-11-4.3c-4.1,0-7.7,1.4-10.6,4.3c-3,2.9-4.4,6.3-4.4,10.4c0,4.1,1.5,7.6,4.5,10.4c3,2.8,6.7,4.3,11.1,4.3
	c4,0,7.5-1.4,10.5-4.3C279.4,284,280.9,280.5,280.9,276.6z"/>
<path d="M326.4,291.2l5.9,6.4h-6.7l-3.3-3.5c-3.6,1.7-6.9,2.5-10.1,2.5c-5.8,0-10.6-2-14.7-5.9c-4-3.9-6-8.7-6-14.3
	c0-5.4,2-10.1,6.1-13.9c4.1-3.9,9-5.8,14.7-5.8c5.6,0,10.5,1.9,14.5,5.8c4.1,3.8,6.1,8.4,6.1,13.8
	C332.9,282.2,330.7,287.2,326.4,291.2z M318.4,290l-8.2-8.8h6.7l5.8,6.2c3.2-3,4.8-6.6,4.8-10.8c0-4.1-1.5-7.6-4.4-10.4
	c-3-2.8-6.6-4.2-11-4.2c-4.2,0-7.7,1.4-10.7,4.3c-2.9,2.9-4.4,6.3-4.4,10.4c0,4.1,1.5,7.5,4.5,10.4c3,2.8,6.7,4.3,11,4.3
	C314.1,291.2,316.2,290.8,318.4,290z"/>
<path d="M340.3,257.8h5.9c3.9,0,7.1,0.8,9.6,2.5c2.5,1.7,3.7,3.8,3.7,6.4c0,3.2-1.8,5.8-5.5,7.9c5.7,1.9,8.5,5.2,8.5,9.8
	c0,3.2-1.5,5.9-4.4,7.8c-2.9,2-6.8,3-11.7,3h-6.2V257.8z M345.3,262.3v11.1c2.8,0,5-0.6,6.5-1.6c1.5-1,2.3-2.5,2.3-4.3
	c0-1.6-0.7-2.9-2-3.8c-1.4-1-3.2-1.4-5.4-1.4C346.1,262.3,345.7,262.3,345.3,262.3z M345.3,277.9v12.8h0.4c4.4,0,7.4-0.7,9-2.1
	c1.6-1.4,2.4-2.9,2.4-4.3c0-1.9-0.9-3.5-2.7-4.7c-1.8-1.2-4.3-1.7-7.4-1.7H345.3z"/>
</svg>
