<?xml version="1.0" standalone="no"?>
<!DOCTYPE svg PUBLIC "-//W3C//DTD SVG 20010904//EN"
 "http://www.w3.org/TR/2001/REC-SVG-20010904/DTD/svg10.dtd">
<svg version="1.0" xmlns="http://www.w3.org/2000/svg"
 width="1600.000000pt" height="1600.000000pt" viewBox="0 0 1600.000000 1600.000000"
 preserveAspectRatio="xMidYMid meet">
<metadata>
Created by potrace 1.11, written by Peter Selinger 2001-2013
</metadata>
<g transform="translate(0.000000,1600.000000) scale(0.100000,-0.100000)"
fill="#000000" stroke="none">
<path d="M13655 11019 c-72 -54 -137 -105 -145 -112 -8 -7 -31 -23 -50 -37
-19 -13 -37 -27 -40 -30 -5 -6 -69 -55 -255 -198 -38 -29 -77 -59 -85 -65 -8
-7 -33 -26 -55 -42 -22 -17 -46 -36 -55 -42 -8 -7 -100 -78 -205 -158 -104
-80 -197 -151 -205 -158 -8 -7 -53 -41 -100 -77 -47 -36 -92 -70 -100 -77 -8
-7 -78 -60 -155 -120 -77 -59 -144 -111 -150 -115 -5 -5 -28 -22 -50 -39 -22
-16 -53 -41 -70 -53 -16 -13 -52 -41 -80 -61 -27 -21 -51 -42 -53 -47 -2 -4
-8 -8 -13 -8 -5 0 -19 -9 -31 -19 -13 -11 -97 -76 -188 -146 -91 -69 -172
-131 -180 -138 -8 -7 -82 -64 -165 -127 -82 -63 -157 -120 -165 -127 -24 -20
-393 -302 -419 -321 -13 -9 -28 -22 -35 -27 -6 -6 -38 -31 -71 -55 -33 -25
-65 -49 -71 -55 -6 -5 -23 -19 -38 -30 -15 -11 -40 -30 -54 -42 -15 -13 -32
-23 -38 -23 -6 0 -51 20 -100 44 -151 74 -369 180 -374 181 -3 0 -52 24 -110
52 -369 178 -405 196 -777 374 -71 34 -189 90 -263 126 -74 36 -191 92 -260
125 -69 33 -195 94 -280 135 -85 41 -201 97 -256 124 -56 27 -106 49 -111 49
-5 0 -24 -21 -43 -47 -18 -27 -48 -68 -65 -93 -90 -128 -376 -527 -385 -537
-5 -7 -20 -27 -33 -45 -12 -18 -36 -52 -52 -74 -17 -23 -37 -52 -45 -64 -8
-13 -24 -35 -36 -49 -11 -14 -42 -57 -69 -96 -27 -38 -53 -71 -57 -73 -4 -2
-8 -8 -8 -13 0 -8 -45 -73 -114 -164 -15 -19 -93 -128 -221 -310 l-60 -84 -75
-2 c-99 -3 -112 -4 -200 -19 -103 -17 -98 -16 -165 -34 -33 -9 -69 -19 -80
-22 -11 -3 -24 -6 -30 -8 -5 -1 -26 -9 -46 -18 -20 -9 -46 -19 -59 -23 -64
-20 -289 -147 -298 -167 -2 -5 -8 -8 -14 -8 -6 0 -24 -12 -42 -26 -17 -14 -51
-42 -76 -62 -62 -51 -187 -178 -235 -237 -22 -28 -43 -52 -46 -55 -12 -10 -86
-130 -110 -177 -13 -26 -27 -50 -30 -53 -16 -14 -93 -226 -104 -285 -2 -16 -9
-46 -15 -65 -18 -58 -25 -156 -24 -343 l0 -178 -70 -20 c-39 -12 -99 -30 -134
-41 -34 -11 -68 -21 -75 -22 -7 -2 -37 -10 -67 -19 -30 -9 -57 -17 -60 -16 -3
0 -18 -5 -35 -11 -25 -10 -340 -103 -385 -115 -8 -2 -43 -13 -78 -24 -62 -20
-137 -42 -157 -46 -6 -2 -74 -21 -150 -44 -77 -23 -171 -51 -210 -62 -38 -12
-97 -29 -130 -40 -76 -24 -295 -89 -316 -94 -8 -2 -40 -11 -70 -20 -30 -9 -91
-27 -137 -40 l-82 -23 -44 46 c-24 26 -57 63 -72 82 -16 19 -32 37 -36 38 -5
2 -8 8 -8 12 0 5 -14 30 -32 56 -32 48 -103 203 -112 246 -3 13 -11 43 -17 68
-6 25 -13 54 -14 65 -22 152 -22 293 1 430 10 60 7 50 24 105 7 25 14 47 14
50 9 50 98 218 162 302 142 189 371 360 559 417 22 7 47 15 55 18 95 37 263
60 418 57 145 -2 217 -10 342 -39 14 -3 35 -8 47 -11 12 -2 34 -9 48 -14 14
-5 25 -8 25 -5 0 10 269 -94 364 -141 27 -14 51 -23 53 -20 3 3 5 104 6 225 0
152 -3 224 -11 234 -7 8 -29 19 -51 26 -22 6 -56 19 -78 28 -21 9 -40 17 -43
18 -3 0 -39 11 -80 23 -82 24 -129 37 -175 48 -16 4 -34 8 -40 10 -5 1 -28 5
-50 8 -23 4 -51 8 -63 11 -137 26 -446 23 -617 -5 -38 -7 -79 -14 -90 -16 -35
-5 -158 -42 -197 -59 -21 -8 -38 -13 -38 -11 0 3 -36 -13 -80 -35 -44 -21 -82
-39 -85 -39 -2 0 -43 -25 -92 -55 -227 -142 -422 -334 -556 -545 -34 -55 -111
-199 -112 -212 0 -3 -3 -10 -7 -14 -5 -4 -8 -17 -8 -29 0 -11 -4 -25 -9 -30
-11 -11 -55 -176 -65 -240 -26 -173 -27 -410 -1 -539 19 -95 37 -168 54 -221
37 -116 137 -311 201 -395 27 -36 49 -70 50 -76 0 -10 -20 -19 -65 -29 -5 -2
-36 -10 -67 -20 -32 -9 -61 -16 -65 -17 -5 0 -16 -4 -26 -10 -10 -5 -28 -11
-40 -14 -12 -2 -75 -20 -140 -39 -64 -20 -125 -38 -135 -40 -15 -4 -204 -61
-422 -126 -36 -11 -73 -22 -83 -24 -10 -2 -62 -17 -115 -34 -84 -25 -194 -58
-227 -67 -64 -18 -163 -46 -175 -51 -8 -4 -17 -7 -20 -8 -13 -4 -96 -29 -105
-31 -5 -2 -35 -10 -65 -19 -30 -9 -59 -17 -65 -19 -5 -1 -30 -9 -55 -16 -25
-8 -49 -15 -55 -15 -11 -2 -165 -48 -230 -70 -22 -7 -75 -23 -118 -36 -43 -12
-76 -27 -74 -32 2 -6 28 -9 58 -9 100 3 154 2 176 -2 13 -3 23 0 23 5 0 6 5 7
11 4 5 -4 42 -6 82 -5 90 2 86 2 120 -3 15 -2 27 0 27 5 0 5 4 6 10 3 5 -3 58
-6 117 -5 60 0 119 0 133 0 119 -5 240 -4 240 3 0 5 4 5 10 2 8 -5 60 -6 130
-4 8 1 30 -1 48 -4 18 -2 35 0 38 4 3 5 10 7 15 3 6 -3 41 -5 77 -4 82 2 81 2
115 -3 15 -2 27 0 27 5 0 5 4 6 10 3 5 -3 58 -6 117 -5 60 0 119 0 133 0 119
-5 240 -4 240 3 0 5 4 5 10 2 8 -5 60 -6 130 -4 8 1 30 -1 48 -4 18 -2 35 0
38 4 3 5 10 7 15 3 6 -3 41 -5 77 -4 82 2 81 2 115 -3 15 -2 27 -1 27 4 0 5 6
6 13 4 22 -9 227 -10 227 -2 0 5 5 5 11 2 5 -4 42 -6 82 -5 40 1 78 1 85 1 15
-1 31 -1 127 -1 28 1 57 1 65 0 8 0 38 1 65 1 28 1 55 1 60 1 91 -6 145 -5
145 1 0 5 5 5 11 2 5 -4 42 -6 82 -5 40 1 78 1 85 1 15 -1 31 -1 127 -1 28 1
57 1 65 0 8 0 38 1 65 1 28 1 55 1 60 1 6 -1 27 -3 48 -4 20 -2 37 0 37 5 0 4
4 5 10 2 8 -5 60 -6 130 -4 8 1 30 -1 48 -4 18 -2 35 0 38 4 3 5 10 7 15 3 6
-3 41 -5 77 -4 82 2 81 2 115 -3 15 -2 27 0 27 5 0 5 4 6 10 3 5 -3 58 -6 117
-5 60 0 119 0 133 0 119 -5 240 -4 240 3 0 5 4 5 10 2 8 -5 60 -6 130 -4 8 1
30 -1 48 -4 18 -2 35 0 38 4 3 5 10 7 15 3 6 -3 41 -5 77 -4 82 2 81 2 115 -3
15 -2 27 0 27 5 0 5 4 6 10 3 5 -3 58 -6 117 -5 60 0 119 0 133 0 119 -5 240
-4 240 3 0 5 4 5 10 2 8 -5 60 -6 130 -4 8 1 30 -1 48 -4 18 -2 35 0 38 4 3 5
10 7 15 3 6 -3 41 -5 77 -4 82 2 81 2 115 -3 15 -2 27 -1 27 4 0 5 6 6 13 4
22 -9 227 -10 227 -2 0 5 5 5 11 2 5 -4 42 -6 82 -5 40 1 78 1 85 1 15 -1 31
-1 127 -1 28 1 57 1 65 0 8 0 38 1 65 1 28 1 55 1 60 1 91 -6 145 -5 145 1 0
5 5 5 11 2 5 -4 42 -6 82 -5 40 1 78 1 85 1 15 -1 31 -1 127 -1 28 1 57 1 65
0 8 0 38 1 65 1 28 1 55 1 60 1 6 -1 27 -3 48 -4 20 -2 37 0 37 5 0 4 4 5 10
2 8 -5 60 -6 130 -4 8 1 30 -1 48 -4 18 -2 35 0 38 4 3 5 10 7 15 3 6 -3 41
-5 77 -4 82 2 81 2 115 -3 15 -2 27 0 27 5 0 5 4 6 10 3 5 -3 58 -6 117 -5 60
0 119 0 133 0 119 -5 240 -4 240 3 0 5 4 5 10 2 8 -5 60 -6 130 -4 8 1 30 -1
48 -4 18 -2 35 0 38 4 3 5 10 7 15 3 6 -3 41 -5 77 -4 82 2 81 2 115 -3 15 -2
27 0 27 5 0 5 4 6 10 3 5 -3 58 -6 117 -5 60 0 119 0 133 0 119 -5 240 -4 240
3 0 5 4 5 10 2 8 -5 60 -6 130 -4 8 1 30 -1 48 -4 18 -2 35 0 38 4 3 5 10 7
15 3 6 -3 41 -5 77 -4 82 2 81 2 115 -3 15 -2 27 -1 27 4 0 5 6 6 13 3 22 -8
167 -9 167 -1 0 5 4 5 10 2 8 -5 60 -6 130 -4 8 1 30 -1 48 -4 18 -2 35 0 38
4 3 5 10 7 15 3 6 -3 41 -5 77 -4 82 2 81 2 115 -3 15 -2 27 0 27 5 0 5 4 6
10 3 5 -3 58 -6 117 -5 60 0 119 0 133 0 105 -5 240 -4 240 1 0 3 19 3 43 -1
23 -3 57 -3 75 1 18 4 35 3 38 -2 7 -12 544 -10 544 1 0 5 7 7 15 4 23 -9 245
-10 245 -1 0 5 4 5 10 2 8 -5 60 -6 130 -4 8 1 30 -1 48 -4 18 -2 35 0 38 4 3
5 10 7 15 3 6 -3 41 -5 77 -4 82 2 81 2 115 -3 15 -2 27 -1 27 4 0 5 6 6 13 4
22 -9 227 -10 227 -2 0 5 5 5 11 2 5 -4 42 -6 82 -5 40 1 78 1 85 1 15 -1 31
-1 127 -1 28 1 57 1 65 0 8 0 38 1 65 1 28 1 55 1 60 1 91 -6 145 -5 145 1 0
5 5 5 11 2 5 -4 42 -6 82 -5 40 1 78 1 85 1 15 -1 31 -1 127 -1 28 1 57 1 65
0 8 0 38 1 65 1 28 1 55 1 60 1 6 -1 27 -3 48 -4 20 -2 37 0 37 5 0 4 4 5 10
2 8 -5 60 -6 130 -4 8 1 30 -1 48 -4 18 -2 35 0 38 4 3 5 10 7 15 3 6 -3 41
-5 77 -4 82 2 81 2 115 -3 15 -2 27 0 27 5 0 5 4 6 10 3 5 -3 58 -6 117 -5 60
0 119 0 133 0 119 -5 240 -4 240 3 0 5 4 5 10 2 8 -5 60 -6 130 -4 8 1 30 -1
48 -4 18 -2 35 0 38 4 3 5 10 7 15 3 6 -3 41 -5 77 -4 82 2 81 2 115 -3 15 -2
27 0 27 5 0 5 4 6 10 3 5 -3 71 -6 147 -5 76 0 157 0 179 0 l42 -1 -45 133
c-24 73 -46 138 -47 143 -2 6 -6 17 -9 25 -3 8 -47 141 -98 295 -50 154 -95
289 -100 300 -5 11 -54 157 -109 325 -56 168 -105 314 -110 325 -4 11 -20 58
-35 105 -14 47 -29 92 -32 100 -4 8 -7 17 -8 20 -1 3 -4 12 -7 20 -11 29 -200
595 -202 605 -4 20 -28 90 -36 110 -5 11 -59 171 -120 355 -61 184 -113 342
-117 350 -3 8 -7 20 -8 25 -2 6 -44 134 -95 285 -51 151 -93 280 -95 285 -1 6
-5 17 -8 25 -20 46 -75 220 -70 220 3 0 1 6 -4 13 -6 6 -52 138 -102 292 -51
154 -96 289 -101 300 -4 11 -22 65 -40 120 -17 55 -35 109 -40 120 -5 11 -14
38 -21 60 -6 22 -14 47 -17 55 -3 8 -6 17 -7 20 -1 3 -4 12 -8 20 -3 8 -18 53
-33 100 -15 47 -32 99 -40 115 -7 17 -15 44 -19 60 -4 17 -10 39 -15 50 -13
32 -23 59 -26 72 -3 17 -183 552 -194 578 -4 11 -30 88 -56 170 -26 83 -50
153 -54 157 -3 4 -64 -38 -135 -93z m-319 -774 c-3 -13 -7 -28 -10 -33 -3 -5
-8 -22 -11 -38 -3 -16 -12 -54 -20 -84 -9 -30 -18 -64 -20 -74 -4 -16 -40
-155 -51 -196 -16 -60 -45 -167 -48 -175 -1 -5 -6 -28 -11 -50 -4 -22 -12 -46
-18 -52 -5 -7 -7 -13 -4 -13 3 0 1 -15 -4 -32 -6 -18 -12 -40 -14 -48 -1 -8
-26 -103 -55 -210 -54 -201 -68 -257 -76 -299 -3 -14 -8 -29 -11 -34 -3 -4
-16 -50 -28 -100 -13 -51 -35 -135 -50 -187 -32 -117 -25 -93 -70 -270 -2 -8
-4 -15 -5 -15 -1 0 -3 -7 -5 -15 -1 -8 -13 -53 -25 -100 -12 -47 -24 -92 -25
-100 -2 -8 -4 -15 -5 -15 -1 0 -3 -7 -5 -15 -5 -20 -12 -45 -28 -105 l-13 -50
-75 1 -74 0 0 -280 c0 -307 6 -267 -74 -566 -23 -85 -44 -166 -47 -180 -2 -14
-9 -36 -14 -50 -5 -14 -25 -86 -44 -160 -19 -74 -53 -205 -76 -290 -23 -85
-45 -171 -50 -190 -4 -19 -15 -62 -25 -95 -16 -60 -34 -128 -125 -474 -27
-101 -51 -185 -53 -187 -2 -2 -21 31 -43 73 -21 43 -41 80 -44 83 -3 3 -12 18
-20 35 -8 16 -32 61 -52 99 l-38 69 26 71 c14 39 27 78 29 86 3 8 11 41 20 72
15 57 18 70 30 168 4 30 8 66 11 80 5 31 5 264 -1 305 -2 17 -6 53 -9 80 -7
67 -47 226 -75 300 -10 27 -108 225 -124 250 -49 79 -148 198 -248 298 -65 64
-121 117 -124 117 -4 0 -12 6 -20 13 -55 52 -198 145 -305 197 -78 39 -270
109 -314 115 -11 1 -28 5 -36 9 -15 6 -117 193 -109 199 31 23 165 123 169
128 3 3 23 18 45 34 22 16 65 49 95 72 30 24 60 47 65 51 6 4 48 37 95 72 47
36 87 67 90 70 3 3 82 64 175 135 94 71 222 170 286 220 64 49 127 97 139 105
12 8 29 21 37 29 8 8 49 40 91 72 43 32 82 62 87 66 11 10 199 153 290 222 71
54 72 55 107 84 15 12 44 35 65 50 21 15 74 56 118 91 44 34 127 98 184 142
57 43 127 97 155 118 28 22 85 65 126 97 41 32 125 96 185 143 61 47 111 86
113 86 1 0 0 -11 -2 -25z m404 -238 c7 -29 16 -56 20 -62 3 -5 12 -30 19 -55
7 -25 22 -67 32 -94 10 -27 19 -55 19 -62 0 -8 4 -22 9 -32 6 -9 20 -48 32
-87 12 -38 26 -76 32 -82 5 -7 7 -13 4 -13 -4 0 1 -19 9 -42 9 -24 17 -50 19
-58 3 -8 16 -49 30 -90 15 -41 28 -79 29 -85 2 -5 6 -17 9 -25 9 -24 129 -384
132 -395 1 -5 5 -17 8 -25 3 -8 20 -58 37 -110 17 -52 34 -102 37 -110 4 -8 7
-17 8 -20 3 -12 163 -492 261 -780 58 -173 107 -320 108 -327 1 -7 5 -16 9
-19 4 -4 7 -17 7 -29 0 -12 3 -24 6 -28 6 -6 260 -752 269 -790 2 -10 14 -45
26 -79 11 -33 22 -65 24 -72 1 -6 5 -18 8 -26 7 -18 417 -1242 417 -1246 0 -2
-8 -3 -17 -3 -92 -2 -118 -1 -134 4 -10 4 -19 2 -19 -3 0 -5 -19 -6 -42 -3
-24 3 -65 4 -93 1 -27 -3 -61 -2 -75 3 -14 5 -26 4 -28 -1 -1 -5 -22 -6 -45
-3 -23 3 -64 4 -92 1 -27 -3 -60 -2 -72 2 -12 4 -25 3 -28 -3 -4 -5 -11 -7
-16 -4 -8 5 -40 6 -154 5 -40 -1 -150 -2 -160 -1 -20 0 -141 1 -160 1 -186 -2
-245 1 -245 12 0 6 3 8 7 5 14 -15 177 126 234 204 33 43 96 165 103 199 3 14
12 51 20 82 9 38 13 97 11 175 -3 137 -30 236 -92 343 -46 77 -156 192 -238
247 -73 49 -258 140 -302 149 -18 4 -33 10 -33 14 0 4 24 23 53 41 28 18 70
47 92 64 46 35 165 155 165 166 0 4 6 14 14 21 20 20 60 103 81 168 19 56 27
234 13 290 -3 14 -9 39 -13 55 -9 37 -63 141 -90 175 -28 35 -138 140 -147
140 -3 0 -13 6 -20 13 -27 25 -148 95 -178 102 -3 1 -16 6 -30 12 -121 51
-280 85 -438 94 -24 2 -45 6 -47 9 -4 7 -2 16 69 280 89 334 127 474 130 490
2 8 14 51 25 95 12 44 23 87 25 95 3 8 18 68 35 133 17 64 45 170 62 235 17
64 37 140 44 167 8 28 17 61 20 75 4 14 9 32 12 40 3 8 7 22 9 31 2 10 29 113
60 230 31 118 59 226 62 242 7 40 27 18 42 -46z m-5590 -935 c158 -75 381
-182 800 -385 125 -60 189 -90 525 -252 66 -32 197 -94 290 -140 94 -45 185
-88 203 -96 17 -7 32 -17 32 -20 0 -3 -42 -44 -92 -91 -51 -47 -113 -105 -138
-128 -37 -34 -92 -69 -120 -75 -38 -8 -238 -126 -313 -185 -33 -25 -69 -52
-80 -60 -23 -16 -194 -186 -237 -236 -62 -70 -183 -258 -173 -268 4 -3 1 -6
-5 -6 -7 0 -12 -7 -12 -15 0 -22 -220 -235 -243 -235 -6 0 -8 -3 -5 -6 4 -3
-12 -22 -35 -42 -51 -46 -43 -37 -166 -152 -57 -52 -106 -94 -109 -93 -4 2 -8
11 -8 20 -2 24 -15 122 -19 142 -27 129 -65 242 -123 361 -25 52 -48 97 -51
100 -3 3 -24 32 -45 65 -70 108 -129 178 -239 287 l-109 108 37 167 c21 93 39
177 41 188 1 11 3 20 4 20 1 0 3 7 5 15 2 8 12 56 23 105 19 84 25 110 38 175
3 14 8 34 11 45 3 11 8 29 9 40 2 11 8 38 13 60 5 22 12 51 15 65 3 14 15 68
27 120 11 52 22 104 24 115 2 11 11 52 20 90 24 103 55 249 55 257 0 10 19 3
150 -60z m-710 -629 c-7 -32 -19 -83 -26 -113 -16 -67 -46 -208 -49 -235 -2
-11 -8 -33 -14 -48 -6 -15 -10 -31 -9 -35 2 -7 -24 -122 -27 -122 -1 0 -35 14
-76 30 -41 17 -81 32 -89 34 -79 17 -80 18 -69 37 5 11 41 63 80 117 80 110
76 105 165 227 36 50 77 109 92 132 14 23 28 40 31 38 2 -3 -2 -31 -9 -62z
m-500 -874 c108 -29 217 -74 278 -114 1 -1 -4 -31 -12 -66 -8 -35 -17 -76 -20
-92 -3 -15 -8 -37 -11 -48 -4 -12 -8 -31 -10 -42 -2 -12 -13 -65 -25 -117 -12
-52 -23 -102 -24 -110 -2 -14 -10 -49 -21 -95 -8 -34 -45 -199 -49 -220 -2
-11 -9 -40 -15 -65 -7 -25 -13 -54 -15 -65 -2 -11 -8 -40 -14 -65 -6 -25 -14
-60 -17 -79 -3 -19 -8 -37 -10 -41 -3 -4 -7 -22 -10 -41 -2 -19 -12 -63 -20
-99 -22 -94 -55 -241 -60 -268 -2 -13 -6 -31 -9 -40 -3 -9 -7 -28 -10 -42 -2
-14 -16 -77 -30 -140 -15 -63 -29 -131 -32 -150 -3 -19 -10 -40 -15 -46 -5 -6
-7 -13 -4 -15 2 -3 -1 -26 -8 -52 l-12 -48 -37 33 c-20 18 -69 62 -109 98 -40
36 -77 70 -83 75 -6 6 -69 62 -141 125 -71 63 -150 133 -175 156 -25 23 -60
54 -78 69 -18 15 -48 42 -66 59 -18 17 -61 56 -96 86 -35 30 -83 73 -106 95
-49 45 -50 32 11 121 47 69 171 240 182 252 7 8 18 23 24 35 7 11 16 26 21 31
9 11 168 233 198 276 8 12 22 30 30 40 8 11 42 58 75 106 33 47 67 94 75 104
8 10 80 111 160 224 l145 205 35 -5 c19 -3 69 -14 110 -25z m3533 21 c3 -4 28
-48 114 -209 13 -24 49 -92 80 -150 30 -58 68 -128 83 -156 15 -27 50 -93 77
-145 28 -52 67 -126 88 -165 69 -129 175 -327 240 -450 26 -49 52 -94 56 -99
5 -6 9 -18 9 -28 0 -10 4 -18 8 -18 4 0 15 -15 23 -32 31 -67 73 -143 81 -146
4 -2 8 -10 8 -18 0 -8 11 -31 24 -52 41 -66 41 -74 -6 -143 -24 -34 -74 -96
-112 -137 l-70 -74 -45 49 c-26 26 -102 109 -171 182 -69 74 -153 164 -187
200 l-61 65 -257 1 c-141 0 -261 -2 -266 -6 -5 -3 3 -17 18 -31 16 -14 69 -69
118 -123 50 -54 108 -117 130 -141 22 -23 86 -91 141 -151 56 -59 129 -137
162 -173 34 -36 62 -70 62 -76 0 -8 -78 -37 -135 -50 -5 -2 -59 -14 -120 -29
-136 -32 -268 -41 -374 -26 -86 13 -84 13 -179 36 -105 25 -319 121 -330 147
-2 4 -8 8 -13 8 -46 0 -359 304 -359 349 0 6 -4 11 -9 11 -5 0 -11 8 -15 18
-3 9 -20 42 -37 72 -32 57 -76 160 -84 195 -2 11 -9 38 -14 59 -5 22 -9 42 -9
45 0 3 -1 8 -2 11 -14 36 -19 297 -7 388 3 29 11 71 18 95 6 23 11 42 10 42
-1 0 10 33 24 74 24 72 61 133 97 159 9 7 33 27 51 45 19 17 76 70 127 117 51
47 109 101 130 120 37 35 173 159 260 239 24 22 58 43 75 47 16 3 36 11 44 18
8 6 16 9 18 7 2 -2 29 2 61 8 31 6 80 15 107 19 53 9 310 10 318 2z m-4190
-24 c-4 -5 -12 -17 -19 -26 -33 -40 -83 -110 -94 -130 -6 -12 -19 -30 -28 -39
-9 -10 -44 -57 -77 -105 -33 -49 -68 -97 -77 -108 -10 -11 -20 -29 -23 -39 -4
-11 -10 -19 -14 -19 -4 0 -22 -23 -40 -50 -18 -28 -38 -56 -44 -63 -7 -7 -16
-20 -22 -29 -14 -23 -177 -251 -190 -265 -5 -6 -26 -34 -45 -62 -129 -188
-179 -251 -200 -251 -15 0 -17 12 -14 98 5 152 17 220 61 352 37 109 150 310
173 310 5 0 11 8 14 18 6 17 119 134 181 187 95 81 225 155 359 203 83 30 109
35 99 18z m7047 -17 c105 -26 188 -70 249 -130 46 -45 88 -115 94 -154 1 -11
5 -24 8 -30 10 -16 3 -146 -10 -191 -48 -173 -209 -289 -466 -339 -16 -3 -73
-8 -126 -12 l-95 -6 1 344 c0 189 4 349 7 355 4 6 9 21 11 35 6 33 27 106 37
134 8 22 13 22 106 19 54 -2 137 -13 184 -25z m-2140 -272 c66 -61 169 -182
190 -223 8 -16 18 -31 21 -34 8 -6 62 -111 65 -125 1 -5 10 -28 19 -50 38 -88
64 -215 71 -345 l4 -95 -23 45 c-13 25 -42 79 -64 120 -22 41 -64 120 -93 175
-29 55 -63 118 -75 140 -12 22 -46 85 -75 140 -68 129 -124 234 -167 313 l-35
64 53 -37 c29 -20 78 -60 109 -88z m-3560 -194 c0 -6 4 -13 8 -15 23 -9 104
-171 136 -272 40 -123 49 -189 49 -361 0 -165 -4 -211 -22 -256 -5 -15 -8 -29
-5 -31 2 -3 -31 -36 -74 -75 -42 -39 -93 -86 -113 -104 -83 -77 -234 -216
-272 -249 -22 -19 -53 -50 -70 -67 -27 -30 -56 -46 -43 -25 5 8 7 19 22 90 3
15 16 76 30 137 25 111 29 133 40 183 3 15 10 45 15 67 5 22 12 51 15 65 3 14
23 106 45 205 23 99 43 191 45 205 3 14 9 41 14 60 5 19 11 46 14 60 2 14 9
45 15 70 5 25 12 57 15 73 2 15 7 35 10 45 3 9 7 28 10 42 8 45 48 215 53 223
6 10 62 -53 63 -70z m1056 -760 c4 -76 8 -110 19 -165 3 -16 7 -38 9 -50 39
-212 164 -479 306 -652 40 -48 211 -218 260 -258 l45 -37 -50 -1 c-28 0 -59
-1 -70 -1 -47 1 -101 0 -110 -1 -6 -1 -22 2 -37 5 -15 4 -29 3 -32 -2 -3 -4
-23 -6 -43 -2 -21 3 -60 4 -88 1 -27 -3 -61 -2 -75 3 -14 5 -26 4 -28 -1 -1
-5 -22 -6 -45 -3 -23 3 -64 4 -92 1 -27 -3 -61 -2 -75 3 -14 5 -26 4 -28 -1
-1 -5 -22 -6 -45 -3 -23 3 -64 4 -92 1 -27 -3 -60 -2 -72 2 -12 4 -25 3 -28
-3 -4 -5 -11 -7 -16 -4 -8 5 -40 6 -154 5 -57 -1 -152 -2 -165 -1 -8 0 -44 0
-80 0 -36 0 -72 0 -80 0 -8 0 -52 1 -97 1 -46 1 -83 4 -83 8 1 4 24 25 52 47
92 72 205 193 280 296 17 24 35 46 40 47 4 2 8 8 8 14 0 5 9 22 19 37 33 47
120 226 143 298 14 41 33 76 48 89 14 12 48 44 76 70 28 27 93 87 145 134 51
47 122 113 158 147 36 34 67 60 69 58 2 -2 5 -39 8 -82z m4649 -7 c316 -43
511 -173 575 -385 16 -55 20 -146 7 -196 -12 -44 -40 -100 -77 -149 -140 -191
-341 -266 -742 -280 -91 -3 -107 -1 -110 13 -4 14 -3 986 1 1002 1 8 278 4
346 -5z m-7741 -398 c45 -40 86 -77 92 -83 6 -5 44 -39 85 -75 40 -36 92 -82
114 -102 22 -20 62 -56 89 -80 27 -24 57 -50 66 -58 8 -8 49 -44 90 -80 41
-36 83 -74 95 -86 11 -12 27 -24 35 -27 8 -4 -1 -4 -20 -1 -19 3 -51 12 -70
21 -19 8 -51 22 -70 30 -163 68 -386 242 -472 369 -13 18 -26 34 -30 34 -5 0
-8 6 -8 14 0 7 -6 19 -14 26 -16 13 -86 143 -86 159 0 24 27 8 104 -61z m-473
-165 c52 -106 105 -195 121 -201 4 -2 8 -8 8 -13 0 -19 132 -171 224 -258 26
-25 59 -56 72 -68 13 -13 26 -23 29 -23 4 0 13 -6 21 -14 12 -12 5 -15 -47
-18 -33 -1 -72 0 -87 4 -14 4 -30 4 -35 -1 -4 -4 -25 -5 -45 -2 -20 3 -59 4
-87 1 -27 -3 -61 -2 -75 3 -14 5 -26 4 -28 -1 -1 -5 -22 -6 -45 -3 -23 3 -64
4 -92 1 -27 -3 -61 -2 -75 3 -14 5 -26 4 -28 -1 -1 -5 -22 -6 -45 -3 -23 3
-64 4 -92 1 -27 -3 -61 -2 -75 3 -13 4 -26 5 -27 0 -2 -4 -29 -7 -61 -5 l-59
4 -1 166 c0 92 -1 172 -1 178 -1 6 -57 -17 -126 -51 -103 -51 -300 -129 -320
-126 -2 0 -22 -6 -44 -14 -22 -7 -54 -16 -73 -19 -18 -3 -44 -8 -58 -11 -110
-24 -349 -24 -485 0 -52 9 -129 26 -145 32 -8 3 -21 7 -28 9 -29 6 -20 12 45
30 38 10 70 19 73 19 3 1 37 11 75 23 108 33 476 143 510 152 30 7 369 108
455 134 25 8 65 20 90 27 55 15 52 14 70 22 17 6 126 37 150 42 8 2 16 4 18 5
1 2 7 4 12 5 6 1 12 3 15 4 7 2 8 2 125 38 58 18 108 32 112 33 3 0 30 -48 59
-107z m7454 -280 l0 -308 -86 -1 -86 -2 19 67 c19 65 24 84 32 119 2 9 16 62
31 117 28 105 52 197 60 229 6 25 26 86 28 86 1 0 2 -138 2 -307z m-924 -85
c8 -18 38 -76 66 -129 l51 -96 -56 -2 c-31 -1 -58 -4 -60 -6 -2 -2 -14 0 -26
5 -13 4 -29 4 -36 0 -13 -8 -29 6 -108 95 -5 6 21 40 67 87 42 43 78 78 81 78
3 0 13 -15 21 -32z"/>
</g>
</svg>
