<?xml version="1.0" standalone="no"?>
<!DOCTYPE svg PUBLIC "-//W3C//DTD SVG 20010904//EN"
 "http://www.w3.org/TR/2001/REC-SVG-20010904/DTD/svg10.dtd">
<svg version="1.0" xmlns="http://www.w3.org/2000/svg"
 width="640.000000pt" height="640.000000pt" viewBox="0 0 640.000000 640.000000"
 preserveAspectRatio="xMidYMid meet">
<metadata>
Created by potrace 1.11, written by Peter Selinger 2001-2013
</metadata>
<g transform="translate(0.000000,640.000000) scale(0.100000,-0.100000)"
fill="#000000" stroke="none">
<path d="M0 3200 l0 -3200 3200 0 3200 0 0 3200 0 3200 -3200 0 -3200 0 0
-3200z m5434 310 c364 -1086 661 -1978 659 -1983 -2 -4 -1307 -7 -2900 -7
-2752 0 -2895 1 -2891 17 3 10 155 708 339 1550 184 843 337 1533 341 1533 4
0 372 -175 818 -390 l810 -389 1078 829 c592 456 1078 826 1080 822 2 -4 302
-896 666 -1982z"/>
<path d="M3640 4318 c-465 -358 -845 -656 -845 -663 0 -15 887 -1685 895
-1685 5 0 801 2993 797 2996 -1 1 -382 -291 -847 -648z"/>
<path d="M4309 3310 c-223 -842 -403 -1532 -401 -1535 3 -3 419 -5 925 -5 731
0 918 3 915 13 -3 6 -234 697 -513 1535 -280 837 -512 1522 -515 1522 -4 0
-189 -689 -411 -1530z"/>
<path d="M1146 4233 c-3 -16 -110 -503 -236 -1083 -127 -580 -229 -1059 -227
-1064 3 -8 1708 1557 1715 1573 1 4 -46 30 -105 58 -59 28 -338 161 -619 297
-281 135 -514 246 -517 246 -3 0 -8 -12 -11 -27z"/>
<path d="M1685 2659 c-495 -456 -913 -843 -930 -859 l-30 -30 1388 0 c1179 0
1388 2 1385 14 -4 20 -902 1705 -908 1705 -3 0 -410 -373 -905 -830z"/>
</g>
</svg>
